# xmcd CD database file
#
# Track frame offsets:
#	150
#	19684
#	35334
#	54169
#	72051
#	88329
#	107598
#	126736
#	143027
#	161910
#	180360
#	194807
#	210891
#	228530
#
# Disc length: 3308 seconds
#
# Revision: 0
# Processed by: cddbd v1.5.1PL0 Copyright (c) Steve Scherf et al.
# Submitted via: CDex 1.51
#
DISCID=c20cea0e
DTITLE=Janice Hagan - Naughty or Nice
DYEAR=2005
DGENRE=Jazz
TTITLE0=Merry Christmas Baby
TTITLE1=Santa Bring My Baby Back to Me
TTITLE2=Santa Claus is Coming to Town
TTITLE3=Baby It's Cold Outside
TTITLE4=Rockin' Around the Christmas Tree
TTITLE5=If We Make It Through December
TTITLE6=I Saw Mommy Kissing Santa Claus
TTITLE7=The Christmas Song
TTITLE8=Santa Baby
TTITLE9=I've Got My Love to Keep Me Warm
TTITLE10=Santa Claus is Back in Town
TTITLE11=I'll Be Home for Christmas
TTITLE12=You're All I Want for Christmas
TTITLE13=What are You Doing New Year's Eve
EXTD=YEAR: 2005
EXTT0=
EXTT1=
EXTT2=
EXTT3=
EXTT4=
EXTT5=
EXTT6=
EXTT7=
EXTT8=
EXTT9=
EXTT10=
EXTT11=
EXTT12=
EXTT13=
PLAYORDER=
